<svg width="56" height="56" viewBox="0 0 56 56" fill="none" xmlns="http://www.w3.org/2000/svg">
<path d="M31.0437 19.5007C29.0151 20.6977 26.9103 22.2731 24.9036 24.325C20.8154 28.5384 18.9082 33.0192 18.0107 35.6469C19.1522 35.3474 20.7263 34.8709 22.5548 34.1064C25.3478 32.9197 28.7271 31.0448 31.985 28.0619C36.95 23.5373 39.3557 18.5917 40.452 15.8516C38.6015 16.2402 34.9885 17.1713 31.0437 19.5007Z" fill="#F9B53F"/>
<path d="M1.22065 35.2043C1.05408 34.6271 1.38723 34.0176 1.96314 33.8395L6.42969 32.5314C7.0056 32.3648 7.61509 32.698 7.79199 33.2739C7.95857 33.8511 7.62671 34.4606 7.04951 34.6388L2.58425 35.9468C2.48482 35.9804 2.37377 35.992 2.27305 35.992C1.79656 35.992 1.36528 35.6808 1.22065 35.2043ZM10.0427 8.46702L7.94824 2.9881C7.73776 2.42252 8.0141 1.78979 8.57968 1.57931C9.14397 1.3585 9.7767 1.64646 9.98718 2.21204L12.0816 7.69096C12.2921 8.25525 12.0145 8.88798 11.4502 9.09846C11.3172 9.14236 11.1842 9.17593 11.0615 9.17593C10.6289 9.17593 10.208 8.90993 10.0427 8.46702ZM34.4777 7.32423C33.9689 7.0027 33.8243 6.31445 34.1458 5.81602L36.5063 2.1449C36.8278 1.63484 37.5148 1.49151 38.0132 1.81304C38.5233 2.13457 38.6666 2.82153 38.3463 3.32126L35.9859 6.99108C35.7754 7.31261 35.4203 7.49081 35.0652 7.49081C34.8663 7.50114 34.6662 7.44561 34.4777 7.32423ZM27.8624 31.2672C28.0729 31.2672 28.2834 31.2117 28.4719 31.0787C28.9703 30.7455 29.1033 30.0586 28.7715 29.5588C27.9399 28.3166 26.167 26.1214 23.7174 25.4112C20.8146 24.5797 18.099 25.3673 15.4725 26.1214C14.7636 26.3216 14.0986 26.5205 13.422 26.6754C11.9486 27.0305 10.3965 27.3081 9.12202 26.8975C7.73776 26.4546 6.55107 25.2782 5.57615 24.1806C5.17714 23.7261 4.47856 23.6925 4.03565 24.0916C3.58112 24.4918 3.54754 25.1904 3.94655 25.6333C5.12162 26.953 6.57302 28.3838 8.45701 28.9829C10.2416 29.5485 12.1475 29.227 13.932 28.7944C14.6526 28.6162 15.3731 28.4173 16.0704 28.2069C18.5084 27.507 20.803 26.842 23.1079 27.4967C24.416 27.8737 25.8119 29.0604 26.9534 30.7572C27.1638 31.089 27.5073 31.2672 27.8624 31.2672Z" fill="#3BA27A"/>
<path d="M12.0048 40.8265C11.4172 40.6935 11.0402 40.106 11.1732 39.5185L11.7827 36.8236C11.9157 36.2347 12.5032 35.8693 13.0907 35.992C13.6783 36.125 14.054 36.7125 13.921 37.3L13.3115 39.995C13.2018 40.505 12.7472 40.8485 12.2475 40.8485C12.17 40.8601 12.0822 40.8485 12.0048 40.8265ZM0.257952 21.4418C-0.130724 20.9756 -0.0751987 20.2887 0.390954 19.9C1.13344 19.2686 2.3847 18.4693 4.12535 18.2033C6.10876 17.8933 7.72673 18.4589 8.51313 18.8244C9.05676 19.08 9.30081 19.7334 9.04513 20.2771C8.79075 20.8207 8.13607 21.0647 7.59373 20.8091C7.02815 20.5431 5.87633 20.1441 4.45721 20.3662C3.2279 20.5547 2.32917 21.1306 1.79716 21.5864C1.5983 21.7633 1.34392 21.8408 1.09987 21.8408C0.77834 21.8408 0.468432 21.7078 0.257952 21.4418ZM31.9848 29.1598C32.3179 29.1598 32.6395 29.0165 32.8499 28.7388C33.2154 28.2624 33.1263 27.5741 32.6498 27.2087C30.4779 25.5222 29.1039 23.6589 28.5939 21.6639C27.9844 19.2905 28.6391 17.1831 29.3364 14.9544C30.0905 12.5255 30.9543 9.77505 30.0905 6.52618C29.5688 4.54018 28.5061 2.7001 26.9423 1.05888C26.5214 0.626302 25.8344 0.60435 25.4031 1.02531C24.9705 1.44756 24.9486 2.13452 25.3695 2.5671C26.6776 3.94232 27.5634 5.46087 27.9844 7.08014C28.683 9.71952 27.9844 11.9483 27.2535 14.2997C26.4994 16.7286 25.713 19.235 26.4775 22.2062C27.1205 24.6907 28.7488 26.953 31.3198 28.9377C31.5199 29.0939 31.7524 29.1598 31.9848 29.1598Z" fill="#446DB7"/>
<path d="M39.3878 12.6807C39.2548 12.0931 39.6215 11.5056 40.2078 11.3726L43.6219 10.5965C44.2095 10.4635 44.7957 10.829 44.93 11.4165C45.0617 12.004 44.6963 12.5928 44.1087 12.7258L40.6959 13.5019C40.6184 13.5239 40.5293 13.5239 40.4518 13.5239C39.9534 13.5239 39.4988 13.1804 39.3878 12.6807ZM31.9849 28.074C33.4143 26.7763 34.623 25.445 35.6534 24.1472C36.5186 23.0497 37.2611 21.974 37.8809 20.9655C39.1115 18.9576 39.9314 17.1614 40.4518 15.8753L46.0934 30.2137L47.5113 33.8177L56.0002 55.4428L52.3549 53.5472L49.2403 51.9279L33.537 43.7438L30.1009 41.9579L18.0106 35.659C20.9147 34.8933 26.5886 32.9861 31.9849 28.074ZM19.9837 9.17611C20.3272 9.17611 20.6706 9.01083 20.8811 8.69963C21.2246 8.20119 21.1032 7.52456 20.6035 7.18108C20.1386 6.85955 19.0191 5.93886 18.6872 4.31959C18.4316 3.07738 18.775 2.04564 19.0088 1.53559C19.2515 0.981626 19.0088 0.338567 18.4548 0.0945141C17.8996 -0.149538 17.2578 0.0945142 17.0137 0.648475C16.6806 1.39225 16.1718 2.92242 16.5476 4.7625C17.0357 7.15783 18.6756 8.5111 19.3626 8.98758C19.5511 9.11025 19.7732 9.17611 19.9837 9.17611Z" fill="#F14947"/>
<path d="M31.9851 40.5606C33.071 40.5606 33.9582 41.436 33.9582 42.5349C33.9582 42.9895 33.8032 43.4104 33.5475 43.7436L30.1127 41.9577C30.3568 41.1481 31.1096 40.5606 31.9851 40.5606ZM46.0936 30.2135L47.5115 33.8175C47.2119 34.006 46.8684 34.1067 46.4914 34.1067C45.4054 34.1067 44.5196 33.2299 44.5196 32.1323C44.5196 31.1897 45.1949 30.3904 46.0936 30.2135ZM26.1562 34.3391C27.2422 34.3391 28.1293 35.2263 28.1293 36.3135C28.1293 37.3995 27.2538 38.2866 26.1562 38.2866C25.0702 38.2866 24.1844 37.4111 24.1844 36.3135C24.1844 35.2263 25.0599 34.3391 26.1562 34.3391ZM42.1591 38.5978C43.2451 38.5978 44.1309 39.4733 44.1309 40.5709C44.1309 41.6581 43.2554 42.5453 42.1591 42.5453C41.0615 42.5453 40.186 41.6698 40.186 40.5709C40.186 39.4733 41.0731 38.5978 42.1591 38.5978ZM51.2136 49.9753C52.2995 49.9753 53.1854 50.8521 53.1854 51.9497C53.1854 52.6147 52.8638 53.1919 52.3654 53.5573L49.2405 51.9277C49.2521 50.8405 50.1263 49.9753 51.2136 49.9753ZM37.8811 20.9537C38.5241 21.2752 38.967 21.9402 38.967 22.7163C38.967 23.8036 38.0916 24.6907 36.9953 24.6907C36.4736 24.6907 35.9868 24.4802 35.6433 24.147C36.5188 23.0495 37.2613 21.9738 37.8811 20.9537ZM5.32265 12.2156C6.796 11.6384 9.79953 10.8287 13.2899 11.783C17.7784 13.0136 20.1285 16.3296 20.9252 17.7048C21.2364 18.2252 21.0582 18.8915 20.5378 19.2014C20.3609 19.3009 20.1724 19.3564 19.9839 19.3564C19.6068 19.3564 19.2414 19.1575 19.0412 18.8128C18.3775 17.6713 16.4264 14.9208 12.714 13.9007C9.8331 13.1027 7.33963 13.7897 6.12066 14.2558C5.55508 14.4779 4.92364 14.1887 4.70154 13.6347C4.47944 13.0795 4.75706 12.4364 5.32265 12.2156Z" fill="#F9B53F"/>
<path d="M12.1262 40.0162C12.0487 39.9942 12.0048 39.9271 12.0268 39.8496L12.7021 36.9662C12.7254 36.8887 12.7912 36.8448 12.8687 36.8667C12.9462 36.8887 12.9901 36.9558 12.9681 37.0333L12.2928 39.9167C12.2812 39.9826 12.2257 40.0278 12.1598 40.0278C12.1482 40.0162 12.1378 40.0162 12.1262 40.0162ZM34.9665 6.5913C34.9006 6.54739 34.8774 6.46992 34.9225 6.40277L37.3153 2.59994C37.3605 2.53279 37.438 2.52246 37.5038 2.55474C37.571 2.59994 37.5929 2.67742 37.549 2.74327L35.155 6.54739C35.133 6.5913 35.0878 6.61325 35.0439 6.61325C35.0104 6.60292 34.9884 6.60292 34.9665 6.5913ZM20.127 18.1806C19.4297 17.0378 17.3908 14.2551 13.5776 13.0348C9.88714 11.8378 6.67443 12.8243 5.46579 13.2905C5.39993 13.3124 5.32245 13.2789 5.28888 13.2117C5.25531 13.1459 5.29921 13.0568 5.36636 13.0348C6.89524 12.4356 10.0201 11.5937 13.6551 12.7688C17.5457 14.0213 19.6402 16.8725 20.3607 18.0359C20.4046 18.1031 20.3827 18.1806 20.3155 18.2245C20.2936 18.2361 20.2716 18.2464 20.2497 18.2464C20.2058 18.2464 20.1606 18.2245 20.127 18.1806ZM31.0771 28.8711C31.0319 28.8156 31.0319 28.7265 31.0874 28.6826C33.1496 26.8967 35 24.8681 36.5728 22.6497C37.7375 21.0201 38.7564 19.2678 39.6099 17.4484C39.6435 17.3826 39.721 17.349 39.7868 17.3826C39.854 17.4148 39.8875 17.4923 39.854 17.5595C38.9888 19.3892 37.97 21.1531 36.7949 22.8047C35.2105 25.045 33.3485 27.0969 31.2656 28.8827C31.2424 28.9047 31.2101 28.915 31.1765 28.915C31.143 28.915 31.0991 28.9047 31.0771 28.8711ZM27.6526 37.5989C27.5855 37.5537 27.5751 37.4659 27.619 37.4104C28.2066 36.5891 28.04 35.436 27.242 34.8484C26.8546 34.5605 26.3445 34.4378 25.8461 34.5269C25.3361 34.616 24.8931 34.904 24.6052 35.3366C24.56 35.4024 24.4825 35.414 24.4167 35.3701C24.3495 35.3249 24.3392 35.2475 24.3831 35.1816C24.715 34.6819 25.2147 34.3603 25.8022 34.2609C26.3665 34.1602 26.954 34.2945 27.4086 34.6264C28.3176 35.303 28.5165 36.6227 27.8411 37.5653C27.8179 37.5989 27.774 37.6208 27.7301 37.6208C27.7081 37.6208 27.6746 37.6092 27.6526 37.5989ZM53.0186 52.725C52.9527 52.703 52.9088 52.6255 52.9308 52.5481C53.1955 51.7268 52.8856 50.8281 52.1767 50.3852C51.5336 49.9862 50.6917 50.0301 50.0822 50.4962C50.0267 50.5401 49.9376 50.5298 49.8937 50.4743C49.8498 50.4187 49.8601 50.3296 49.9156 50.2857C50.6246 49.7524 51.5891 49.6969 52.3213 50.1631C53.1413 50.6731 53.4951 51.6932 53.1852 52.6475C53.1632 52.703 53.1077 52.7469 53.0522 52.7469C53.0522 52.725 53.0418 52.725 53.0186 52.725ZM42.1589 42.6672C42.2364 42.6672 42.2919 42.6 42.2919 42.5342C42.2919 42.4554 42.2248 42.3999 42.1589 42.3999C41.1504 42.3999 40.3304 41.5799 40.3304 40.5701C40.3304 39.5616 41.1504 38.7404 42.1589 38.7404C42.2364 38.7404 42.2919 38.6745 42.2919 38.6074C42.2919 38.5415 42.2248 38.4744 42.1589 38.4744C40.9955 38.4744 40.0528 39.417 40.0528 40.5817C40.0528 41.7245 40.9955 42.6672 42.1589 42.6672Z" fill="#3A5471"/>
</svg>
