<svg xmlns="http://www.w3.org/2000/svg" viewBox="0 0 12 13" width="20" height="20" fill="currentColor" aria-hidden="true">
  <g fill-rule="evenodd" transform="translate(-450 -1073)">
    <g>
      <path d="M106.617 923.049c-1.583.777-2.986 2.756-3.063 4.32a2.962 2.962 0 0 1-.554 1.6 6.977 6.977 0 0 0 3.76-2.66 6.62 6.62 0 0 0 1.224-4.31c-.335.414-.792.768-1.367 1.05" transform="translate(354 156)"/>
      <path d="M101.685 926.713a.513.513 0 0 1-.454.287.495.495 0 0 1-.25-.07 3.42 3.42 0 0 1-1.44-1.657c-.112-.282.011-.609.275-.729.263-.12.567.012.68.294.179.45.529.848.987 1.12.25.149.34.487.202.755M99 922.5c0-.551.449-1 1-1 .551 0 1 .449 1 1a1.001 1.001 0 0 1-2 0m5.5-2c.551 0 1 .449 1 1a1.001 1.001 0 1 1-1-1m-1.908 6.813c.094-1.923 1.704-4.25 3.59-5.188 1.14-.568 1.605-1.391 1.423-2.512l-.015-.084c-.24-1.332-1.533-2.228-2.889-1.992l-6.137 1.062a2.479 2.479 0 0 0-1.622 1.025 2.413 2.413 0 0 0-.403 1.824l1.082 6.023c.214 1.19 1.269 2.029 2.455 2.029.08 0 .161-.013.242-.021 1.37-.267 2.221-1.07 2.274-2.166" transform="translate(354 156)"/>
    </g>
  </g>
</svg>
