<svg width="17" height="17" viewBox="0 0 17 17" fill="none" xmlns="http://www.w3.org/2000/svg">
<path fill-rule="evenodd" clip-rule="evenodd" d="M3.85213 3.72269C5.44446 2.31136 7.5037 1.59375 9.47688 1.59375C11.1673 1.59375 12.823 2.12172 14.0712 3.22035L14.0716 3.22069L14.072 3.22104C15.8518 4.79367 15.8519 7.39785 14.0725 8.97068C14.0724 8.97084 14.0722 8.97099 14.072 8.97115L13.0669 9.86349C12.9271 9.9877 12.8893 10.1072 12.8893 10.1934C12.8893 10.2795 12.9271 10.3991 13.067 10.5233L13.0678 10.524L13.0686 10.5248C13.1586 10.6054 13.2043 10.6337 13.2469 10.6528C13.2966 10.6751 13.3756 10.6994 13.5512 10.7284L13.5521 10.7285L13.5529 10.7287C13.5678 10.7312 13.5839 10.7338 13.6009 10.7366C13.8476 10.7768 14.3071 10.8517 14.642 11.1612L14.6429 11.1621L14.6439 11.163C14.9607 11.4588 15.1246 11.8915 15.138 12.3062C15.1516 12.7278 15.0107 13.1969 14.6303 13.5328C13.2282 14.7792 11.2825 15.4062 9.33743 15.4062H9.27906L9.27715 15.4062C7.33016 15.3922 5.34093 14.7499 3.85241 13.4336C0.840794 10.7718 0.840702 6.38456 3.85213 3.72269ZM9.47688 2.65625C7.75135 2.65625 5.94588 3.28659 4.55662 4.51806L4.55633 4.51831L4.55604 4.51857C2.02282 6.75751 2.02282 10.3985 4.55604 12.6375L4.55615 12.6376C5.82301 13.7579 7.55166 14.3308 9.28289 14.3438H9.33743C11.0709 14.3438 12.7507 13.7824 13.925 12.7382L13.9258 12.7374L13.9267 12.7367C14.0238 12.6511 14.0816 12.5129 14.0761 12.3405C14.0703 12.1615 13.9974 12.0137 13.9198 11.9406C13.8395 11.8671 13.6958 11.8303 13.3773 11.7766C13.1713 11.7425 12.9865 11.7004 12.8124 11.6224C12.6312 11.5412 12.4927 11.4352 12.3605 11.3169C12.0261 11.0196 11.8268 10.6231 11.8268 10.1934C11.8268 9.76322 12.0265 9.36645 12.3614 9.069L13.368 8.17536L13.3685 8.17495C14.6697 7.02519 14.6698 5.1675 13.3689 4.0176C12.3461 3.11762 10.9539 2.65625 9.47688 2.65625Z" fill="#1F1F1F"/>
<path d="M4.78163 7.96875C5.36843 7.96875 5.84413 7.49305 5.84413 6.90625C5.84413 6.31945 5.36843 5.84375 4.78163 5.84375C4.19482 5.84375 3.71913 6.31945 3.71913 6.90625C3.71913 7.49305 4.19482 7.96875 4.78163 7.96875Z" fill="#1F1F1F"/>
<path d="M5.04725 11.3887C5.63405 11.3887 6.10975 10.913 6.10975 10.3262C6.10975 9.73937 5.63405 9.26367 5.04725 9.26367C4.46045 9.26367 3.98475 9.73937 3.98475 10.3262C3.98475 10.913 4.46045 11.3887 5.04725 11.3887Z" fill="#1F1F1F"/>
<path d="M7.43788 5.84375C8.02468 5.84375 8.50038 5.36805 8.50038 4.78125C8.50038 4.19445 8.02468 3.71875 7.43788 3.71875C6.85107 3.71875 6.37538 4.19445 6.37538 4.78125C6.37538 5.36805 6.85107 5.84375 7.43788 5.84375Z" fill="#1F1F1F"/>
<path d="M8.50038 13.7793C9.38058 13.7793 10.0941 13.0658 10.0941 12.1855C10.0941 11.3053 9.38058 10.5918 8.50038 10.5918C7.62017 10.5918 6.90663 11.3053 6.90663 12.1855C6.90663 13.0658 7.62017 13.7793 8.50038 13.7793Z" fill="#1F1F1F"/>
<path d="M10.891 5.84375C11.4778 5.84375 11.9535 5.36805 11.9535 4.78125C11.9535 4.19445 11.4778 3.71875 10.891 3.71875C10.3042 3.71875 9.8285 4.19445 9.8285 4.78125C9.8285 5.36805 10.3042 5.84375 10.891 5.84375Z" fill="#1F1F1F"/>
</svg>
