<svg width="69" height="68" viewBox="0 0 69 68" fill="none" xmlns="http://www.w3.org/2000/svg">
<path d="M37.8312 23.7654C35.3591 25.2241 32.7941 27.144 30.3487 29.6444C25.3666 34.7791 23.0424 40.2396 21.9487 43.4419C23.3398 43.0768 25.258 42.4962 27.4863 41.5646C30.89 40.1184 35.0082 37.8335 38.9784 34.1985C45.029 28.6845 47.9606 22.6576 49.2966 19.3184C47.0416 19.792 42.6386 20.9266 37.8312 23.7654Z" fill="#F9B53F"/>
<path d="M1.48785 42.9017C1.28485 42.1983 1.69084 41.4555 2.39268 41.2384L7.83582 39.6443C8.53765 39.4413 9.2804 39.8473 9.49599 40.5491C9.69898 41.2525 9.29456 41.9953 8.59116 42.2124L3.14959 43.8065C3.02842 43.8474 2.89309 43.8616 2.77035 43.8616C2.18968 43.8616 1.66409 43.4823 1.48785 42.9017ZM12.2388 10.3184L9.68639 3.64151C9.42989 2.95226 9.76665 2.18119 10.4559 1.92469C11.1436 1.6556 11.9146 2.00652 12.1711 2.69576L14.7235 9.37262C14.98 10.0603 14.6417 10.8314 13.954 11.0879C13.792 11.1414 13.6299 11.1823 13.4804 11.1823C12.9532 11.1823 12.4402 10.8581 12.2388 10.3184ZM42.0164 8.92571C41.3964 8.53388 41.2201 7.69514 41.6119 7.08773L44.4885 2.61393C44.8803 1.99236 45.7175 1.81768 46.3249 2.20951C46.9465 2.60134 47.1212 3.43851 46.7309 4.0475L43.8543 8.51972C43.5978 8.91155 43.1651 9.12871 42.7324 9.12871C42.49 9.1413 42.2461 9.07363 42.0164 8.92571ZM33.9547 38.1037C34.2112 38.1037 34.4677 38.0361 34.6975 37.874C35.3049 37.468 35.467 36.6308 35.0625 36.0218C34.0491 34.508 31.8886 31.8329 28.9034 30.9674C25.3659 29.954 22.0566 30.9139 18.8559 31.8329C17.9919 32.0768 17.1815 32.3191 16.357 32.5079C14.5615 32.9407 12.67 33.279 11.1168 32.7786C9.42989 32.2388 7.98374 30.8053 6.79566 29.4677C6.30941 28.9138 5.45808 28.8729 4.91833 29.3591C4.36442 29.847 4.32351 30.6983 4.80975 31.238C6.24174 32.8463 8.01049 34.5898 10.3064 35.32C12.4811 36.0092 14.8038 35.6174 16.9785 35.0902C17.8566 34.8731 18.7347 34.6307 19.5844 34.3742C22.5554 33.5213 25.3518 32.7109 28.1607 33.5088C29.7547 33.9683 31.4558 35.4144 32.8469 37.4821C33.1034 37.8866 33.522 38.1037 33.9547 38.1037Z" fill="#3BA27A"/>
<path d="M14.6295 49.7535C13.9136 49.5914 13.4541 48.8754 13.6161 48.1594L14.3589 44.8753C14.521 44.1577 15.237 43.7124 15.953 43.8619C16.669 44.024 17.1269 44.74 16.9648 45.456L16.222 48.7401C16.0883 49.3617 15.5344 49.7803 14.9254 49.7803C14.831 49.7944 14.724 49.7803 14.6295 49.7535ZM0.314352 26.1304C-0.159306 25.5623 -0.0916406 24.7251 0.476435 24.2515C1.38126 23.482 2.9061 22.5079 5.02734 22.1837C7.44441 21.8061 9.41615 22.4953 10.3745 22.9406C11.037 23.2522 11.3344 24.0485 11.0228 24.711C10.7128 25.3735 9.91499 25.6709 9.25407 25.3593C8.56483 25.0351 7.16116 24.5489 5.43176 24.8195C3.93367 25.0493 2.83843 25.7511 2.1901 26.3066C1.94777 26.5222 1.63776 26.6166 1.34035 26.6166C0.94852 26.6166 0.570852 26.4545 0.314352 26.1304ZM38.9781 35.5359C39.3841 35.5359 39.7759 35.3612 40.0324 35.0229C40.4778 34.4422 40.3692 33.6035 39.7885 33.1581C37.1417 31.103 35.4674 28.8323 34.8458 26.401C34.1031 23.5087 34.9009 20.9406 35.7506 18.2245C36.6696 15.2645 37.7224 11.9127 36.6696 7.95351C36.0339 5.53329 34.7388 3.29088 32.8331 1.29081C32.3201 0.763651 31.483 0.7369 30.9574 1.2499C30.4302 1.76447 30.4035 2.60164 30.9165 3.1288C32.5106 4.8047 33.5901 6.65527 34.1031 8.62859C34.9544 11.8451 34.1031 14.5611 33.2124 17.4267C32.2934 20.3867 31.3351 23.441 32.2666 27.0619C33.0503 30.0896 35.0346 32.8466 38.1677 35.2652C38.4116 35.4556 38.6949 35.5359 38.9781 35.5359Z" fill="#446DB7"/>
<path d="M47.9996 15.4532C47.8375 14.7372 48.2844 14.0212 48.9988 13.8592L53.1595 12.9134C53.8755 12.7513 54.5899 13.1967 54.7535 13.9127C54.914 14.6286 54.4687 15.3462 53.7527 15.5083L49.5936 16.454C49.4992 16.4808 49.3906 16.4808 49.2962 16.4808C48.6888 16.4808 48.1349 16.0622 47.9996 15.4532ZM38.978 34.2123C40.72 32.6308 42.1929 31.0084 43.4487 29.4269C44.503 28.0894 45.4078 26.7785 46.1632 25.5496C47.6628 23.1026 48.6621 20.9137 49.2962 19.3464L56.1714 36.8198L57.8992 41.2118L68.2441 67.5651L63.8018 65.2551L60.0063 63.2817L40.8695 53.3082L36.6821 51.1318L21.9483 43.4557C25.4874 42.5226 32.4019 40.1983 38.978 34.2123ZM24.3528 11.1824C24.7714 11.1824 25.19 10.981 25.4465 10.6018C25.8651 9.99435 25.7171 9.16977 25.1082 8.75119C24.5417 8.35936 23.1773 7.23737 22.7729 5.26405C22.4613 3.75023 22.8799 2.49291 23.1647 1.87134C23.4606 1.19625 23.1647 0.412593 22.4897 0.115179C21.813 -0.182234 21.0309 0.115179 20.7335 0.790261C20.3275 1.69666 19.7075 3.5614 20.1654 5.8038C20.7603 8.72286 22.7587 10.372 23.5959 10.9527C23.8257 11.1022 24.0963 11.1824 24.3528 11.1824Z" fill="#F14947"/>
<path d="M38.978 49.4294C40.3014 49.4294 41.3825 50.4963 41.3825 51.8354C41.3825 52.3893 41.1936 52.9023 40.882 53.3083L36.6962 51.132C36.9936 50.1454 37.9111 49.4294 38.978 49.4294ZM56.1713 36.82L57.8991 41.2119C57.5341 41.4417 57.1155 41.5644 56.656 41.5644C55.3326 41.5644 54.2531 40.4959 54.2531 39.1584C54.2531 38.0096 55.0761 37.0356 56.1713 36.82ZM31.8747 41.8477C33.1981 41.8477 34.2792 42.9287 34.2792 44.2537C34.2792 45.5771 33.2122 46.6582 31.8747 46.6582C30.5513 46.6582 29.4718 45.5913 29.4718 44.2537C29.4718 42.9287 30.5387 41.8477 31.8747 41.8477ZM51.3765 47.0375C52.6999 47.0375 53.7794 48.1044 53.7794 49.442C53.7794 50.7669 52.7125 51.848 51.3765 51.848C50.0389 51.848 48.972 50.7811 48.972 49.442C48.972 48.1044 50.0531 47.0375 51.3765 47.0375ZM62.4107 60.9026C63.7341 60.9026 64.8136 61.9711 64.8136 63.3087C64.8136 64.1191 64.4218 64.8225 63.8144 65.2678L60.0062 63.2819C60.0204 61.9569 61.0857 60.9026 62.4107 60.9026ZM46.1631 25.5356C46.9468 25.9274 47.4865 26.7378 47.4865 27.6835C47.4865 29.0085 46.4196 30.0896 45.0836 30.0896C44.4479 30.0896 43.8546 29.8331 43.436 29.4271C44.5029 28.0895 45.4078 26.7787 46.1631 25.5356ZM6.48593 14.8869C8.28142 14.1835 11.9417 13.1968 16.1951 14.3597C21.665 15.8594 24.529 19.9004 25.4999 21.5763C25.8792 22.2105 25.662 23.0225 25.0279 23.4002C24.8123 23.5213 24.5825 23.589 24.3528 23.589C23.8933 23.589 23.4479 23.3467 23.204 22.9265C22.3952 21.5354 20.0175 18.1836 15.4933 16.9405C11.9826 15.968 8.94392 16.8051 7.45842 17.3732C6.76918 17.6439 5.99968 17.2914 5.72902 16.6163C5.45835 15.9396 5.79668 15.156 6.48593 14.8869Z" fill="#F9B53F"/>
<path d="M14.7775 48.7665C14.6831 48.7397 14.6296 48.6579 14.6563 48.5635L15.4793 45.0496C15.5077 44.9552 15.5879 44.9017 15.6823 44.9284C15.7768 44.9552 15.8303 45.037 15.8035 45.1314L14.9805 48.6453C14.9663 48.7256 14.8987 48.7806 14.8184 48.7806C14.8043 48.7665 14.7917 48.7665 14.7775 48.7665ZM42.6117 8.03339C42.5314 7.97989 42.5031 7.88547 42.5582 7.80364L45.4741 3.16934C45.5291 3.08751 45.6236 3.07492 45.7038 3.11426C45.7856 3.16934 45.8124 3.26376 45.7589 3.34401L42.8414 7.97989C42.8146 8.03339 42.7596 8.06014 42.7061 8.06014C42.6652 8.04755 42.6384 8.04755 42.6117 8.03339ZM24.5276 22.1566C23.6779 20.764 21.1932 17.3728 16.5463 15.8857C12.0489 14.427 8.1337 15.6292 6.6608 16.1973C6.58054 16.2241 6.48613 16.1832 6.44521 16.1013C6.4043 16.0211 6.4578 15.9125 6.53963 15.8857C8.40279 15.1556 12.2109 14.1296 16.6407 15.5616C21.382 17.088 23.9344 20.5625 24.8125 21.9804C24.866 22.0622 24.8392 22.1566 24.7574 22.2101C24.7306 22.2243 24.7039 22.2369 24.6771 22.2369C24.6236 22.2369 24.5686 22.2101 24.5276 22.1566ZM37.8719 35.1846C37.8168 35.1169 37.8168 35.0083 37.8845 34.9548C40.3976 32.7785 42.6526 30.3064 44.5692 27.6029C45.9886 25.617 47.2302 23.4816 48.2704 21.2644C48.3113 21.1841 48.4057 21.1432 48.486 21.1841C48.5678 21.2234 48.6087 21.3179 48.5678 21.3997C47.5135 23.6295 46.2719 25.7791 44.8399 27.7917C42.9091 30.522 40.6399 33.0224 38.1017 35.1987C38.0733 35.2255 38.034 35.2381 37.9931 35.2381C37.9522 35.2381 37.8987 35.2255 37.8719 35.1846ZM33.6987 45.8207C33.6169 45.7656 33.6043 45.6586 33.6578 45.5909C34.3738 44.5901 34.1708 43.1848 33.1983 42.4688C32.7262 42.1179 32.1046 41.9684 31.4972 42.077C30.8756 42.1856 30.3359 42.5365 29.9849 43.0637C29.9299 43.1439 29.8355 43.1581 29.7552 43.1046C29.6734 43.0495 29.6608 42.9551 29.7143 42.8748C30.1187 42.2659 30.7277 41.874 31.4437 41.7529C32.1314 41.6301 32.8474 41.7938 33.4013 42.1982C34.5091 43.0228 34.7514 44.631 33.9284 45.7797C33.9001 45.8207 33.8466 45.8474 33.7931 45.8474C33.7664 45.8474 33.7254 45.8332 33.6987 45.8207ZM64.6108 64.254C64.5306 64.2273 64.4771 64.1328 64.5038 64.0384C64.8264 63.0376 64.4487 61.9424 63.5848 61.4026C62.8012 60.9164 61.7752 60.9699 61.0324 61.5379C60.9647 61.5914 60.8562 61.5789 60.8027 61.5112C60.7492 61.4435 60.7617 61.3349 60.8294 61.2814C61.6933 60.6315 62.8688 60.5639 63.7611 61.1319C64.7603 61.7535 65.1915 62.9967 64.8138 64.1596C64.7871 64.2273 64.7194 64.2808 64.6517 64.2808C64.6517 64.254 64.6391 64.254 64.6108 64.254ZM51.3767 51.9971C51.4711 51.9971 51.5388 51.9153 51.5388 51.835C51.5388 51.739 51.457 51.6714 51.3767 51.6714C50.1477 51.6714 49.1485 50.6721 49.1485 49.4415C49.1485 48.2126 50.1477 47.2117 51.3767 47.2117C51.4711 47.2117 51.5388 47.1315 51.5388 47.0496C51.5388 46.9694 51.457 46.8876 51.3767 46.8876C49.9589 46.8876 48.8101 48.0363 48.8101 49.4557C48.8101 50.8484 49.9589 51.9971 51.3767 51.9971Z" fill="#3A5471"/>
</svg>
