<svg width="60" height="61" viewBox="0 0 60 61" fill="none" xmlns="http://www.w3.org/2000/svg">
<path fill-rule="evenodd" clip-rule="evenodd" d="M57.0323 34.1866C58.6125 34.6848 59.4896 36.3697 58.9913 37.9499L58.2437 40.3212L57.242 42.7394L56.0334 45.0611L54.6271 47.2686L53.0337 49.3451L51.2654 51.2749L49.3357 53.0432L47.2591 54.6366L45.0516 56.0429L42.8461 57.191C41.3765 57.956 39.5649 57.3849 38.7999 55.9152C38.0348 54.4456 38.606 52.634 40.0756 51.8689L42.0488 50.8418L43.8144 49.717L45.4753 48.4425L47.0187 47.0282L48.4331 45.4847L49.7075 43.8238L50.8323 42.0582L51.799 40.2013L52.6001 38.2672L53.269 36.1457C53.7673 34.5655 55.4521 33.6884 57.0323 34.1866Z" fill="#5EC8F2"/>
<path fill-rule="evenodd" clip-rule="evenodd" d="M57.2899 28.3007C55.6723 28.6593 54.0703 27.6387 53.7117 26.0211L53.2302 23.8494L52.6007 21.8528L51.7996 19.9186L50.8329 18.0617L49.7081 16.2961L48.4336 14.6352L47.0193 13.0917L45.4758 11.6774L43.815 10.403L42.0493 9.27815L40.1924 8.31148L38.2583 7.51034L36.2617 6.88082L34.2178 6.42771L32.1423 6.15445L30.0508 6.06314L27.9593 6.15445L25.8837 6.42771L23.8398 6.88082L21.8433 7.51034L19.9091 8.31149L18.0522 9.27814L16.2866 10.403L14.6257 11.6774L13.0822 13.0917L11.6679 14.6352L10.3935 16.2961L9.26864 18.0617L8.30196 19.9187L7.50084 21.8527L6.8713 23.8494L6.4182 25.8932L6.14494 27.9688L6.05362 30.0603L6.14494 32.1518L6.4182 34.2274L6.87131 36.2712L7.50082 38.2678L8.30196 40.2019L9.26864 42.0589L10.3935 43.8245L11.6679 45.4853L13.0822 47.0288L14.6257 48.4432L16.2865 49.7176L18.0522 50.8424L19.9091 51.8091L21.8432 52.6102L23.8399 53.2397L25.8837 53.6929L27.9593 53.9661L30.1816 54.0631C31.8369 54.1354 33.1202 55.5359 33.0479 57.1911C32.9756 58.8464 31.5752 60.1297 29.9199 60.0574L27.4358 59.949L24.8408 59.6073L22.2855 59.0408L19.7892 58.2537L17.371 57.2521L15.0493 56.0435L12.8418 54.6372L10.7653 53.0438L8.83554 51.2755L7.06724 49.3457L5.47386 47.2692L4.06753 45.0617L2.85894 42.74L1.85731 40.3219L1.07023 37.8256L0.503718 35.2702L0.162077 32.6752L0.0479064 30.0603L0.162081 27.4454L0.503721 24.8503L1.07023 22.295L1.8573 19.7987L2.85894 17.3805L4.06753 15.0588L5.47387 12.8513L7.06725 10.7748L8.83554 8.84506L10.7653 7.07676L12.8418 5.48338L15.0493 4.07704L17.371 2.86846L19.7892 1.86682L22.2855 1.07975L24.8408 0.513234L27.4358 0.171592L30.0508 0.0574221L32.6657 0.171592L35.2607 0.513233L37.8161 1.07974L40.3123 1.86682L42.7305 2.86846L45.0522 4.07704L47.2597 5.48338L49.3362 7.07676L51.266 8.84506L53.0343 10.7748L54.6277 12.8513L56.034 15.0589L57.2426 17.3805L58.2442 19.7987L59.0313 22.295L59.5695 24.7225C59.9281 26.34 58.9075 27.9421 57.2899 28.3007Z" fill="#E8DEF8"/>
</svg>
