<svg width="22" height="22" viewBox="0 0 22 22" fill="none" xmlns="http://www.w3.org/2000/svg">
<path d="M16 8.75V6.75C16 5.13999 15.7497 3.85937 15.041 2.97949C14.3605 2.13464 13.1216 1.5 10.75 1.5C8.37836 1.5 7.13953 2.13464 6.45898 2.97949C5.75034 3.85937 5.5 5.13999 5.5 6.75V8.75C5.5 9.16421 5.16421 9.5 4.75 9.5C4.33579 9.5 4 9.16421 4 8.75V6.75C4 5.05013 4.24978 3.3307 5.29102 2.03809C6.36048 0.710534 8.12174 0 10.75 0C13.3783 0 15.1395 0.710534 16.209 2.03809C17.2502 3.3307 17.5 5.05013 17.5 6.75V8.75C17.5 9.16421 17.1642 9.5 16.75 9.5C16.3358 9.5 16 9.16421 16 8.75Z" fill="#4A4A4A"/>
<path d="M20 13.75C20 11.7446 19.7312 10.7918 19.2197 10.2803C18.7082 9.76878 17.7554 9.5 15.75 9.5H5.75C3.74464 9.5 2.79177 9.76878 2.28027 10.2803C1.76878 10.7918 1.5 11.7446 1.5 13.75V15.75C1.5 17.7554 1.76878 18.7082 2.28027 19.2197C2.79177 19.7312 3.74464 20 5.75 20H15.75C17.7554 20 18.7082 19.7312 19.2197 19.2197C19.7312 18.7082 20 17.7554 20 15.75V13.75ZM21.5 15.75C21.5 17.7446 21.2688 19.2918 20.2803 20.2803C19.2918 21.2688 17.7446 21.5 15.75 21.5H5.75C3.75536 21.5 2.20823 21.2688 1.21973 20.2803C0.231221 19.2918 0 17.7446 0 15.75V13.75C0 11.7554 0.231221 10.2082 1.21973 9.21973C2.20823 8.23122 3.75536 8 5.75 8H15.75C17.7446 8 19.2918 8.23122 20.2803 9.21973C21.2688 10.2082 21.5 11.7554 21.5 13.75V15.75Z" fill="#4A4A4A"/>
<path d="M14.7559 13.75C15.308 13.7502 15.7559 14.1979 15.7559 14.75C15.7559 15.3021 15.308 15.7498 14.7559 15.75H14.7461C14.194 15.7498 13.7461 15.3022 13.7461 14.75C13.7461 14.1978 14.194 13.7502 14.7461 13.75H14.7559Z" fill="#4A4A4A"/>
<path d="M10.7549 13.75C11.307 13.7502 11.7549 14.1979 11.7549 14.75C11.7549 15.3021 11.307 15.7498 10.7549 15.75H10.7451C10.193 15.7498 9.74512 15.3022 9.74512 14.75C9.74512 14.1978 10.193 13.7502 10.7451 13.75H10.7549Z" fill="#4A4A4A"/>
<path d="M6.75391 13.75C7.306 13.7502 7.75391 14.1979 7.75391 14.75C7.75391 15.3021 7.306 15.7498 6.75391 15.75H6.74414C6.19202 15.7498 5.74414 15.3022 5.74414 14.75C5.74414 14.1978 6.19202 13.7502 6.74414 13.75H6.75391Z" fill="#4A4A4A"/>
</svg>
